<?xml version="1.0" encoding="utf-8"?>
<!-- Generator: Adobe Illustrator 16.0.0, SVG Export Plug-In . SVG Version: 6.00 Build 0)  -->
<!DOCTYPE svg PUBLIC "-//W3C//DTD SVG 1.1//EN" "http://www.w3.org/Graphics/SVG/1.1/DTD/svg11.dtd">
<svg version="1.1" id="Layer_1" xmlns="http://www.w3.org/2000/svg" xmlns:xlink="http://www.w3.org/1999/xlink" x="0px" y="0px"
	 width="1280px" height="1600px" viewBox="0 0 1280 1600" enable-background="new 0 0 1280 1600" xml:space="preserve">
<rect fill="none" width="1280" height="1600"/>
<title>CEPAL</title>
<path fill="#FFFFFF" d="M348.565,332.207c0.289-161.41,131.615-291.869,293.025-291.58c161.41,0.29,291.58,131.616,291.29,293.026
	c-0.289,161.121-131.037,291.291-292.158,291.291C479.023,624.944,348.275,493.617,348.565,332.207z M467.164,170.508
	l-32.977-31.819c-48.018,51.2-75.209,118.599-76.077,188.891h45.704C404.683,269.147,427.245,213.319,467.164,170.508z
	 M506.504,208.691l-32.397-31.53c-37.894,41.076-59.589,94.59-60.457,150.418h45.415
	C459.933,283.321,476.71,241.088,506.504,208.691L506.504,208.691z M814.282,493.906l32.977,31.819
	c48.019-51.489,75.209-118.599,76.077-188.89h-45.704C876.475,394.978,853.912,451.096,814.282,493.906z M636.095,94.72V48.727
	c-73.474,1.157-143.476,30.951-195.254,83.019l32.976,31.819C516.918,120.465,575.06,95.877,636.095,94.72L636.095,94.72z
	 M636.095,149.681v-45.415c-58.432,1.157-113.971,24.877-155.046,65.953l32.397,31.53
	C546.134,169.351,589.813,150.838,636.095,149.681L636.095,149.681z M636.095,214.187v-55.25
	c-43.39,1.157-84.755,18.802-115.706,49.464l39.34,38.183C580.267,226.915,607.458,215.344,636.095,214.187L636.095,214.187z
	 M636.095,615.688v-45.993c-60.745-1.157-118.888-25.745-161.988-68.846l-32.977,31.819
	C492.619,584.446,562.621,614.241,636.095,615.688L636.095,615.688z M645.641,158.937v55.25
	c28.638,1.157,55.828,12.728,76.366,32.687l39.629-38.183C730.396,177.739,689.03,160.094,645.641,158.937L645.641,158.937z
	 M446.337,467.873c-4.339-2.025-9.546-4.339-12.728-6.075c-4.918-2.893-1.446-6.074-5.496-8.678s-5.207-2.604-9.257-5.207
	s3.182-2.604-4.628-5.496c-2.604-0.867-2.893,2.893-7.811,2.025c-4.917-0.868-4.628-9.835-7.521-9.835
	c-8.679,0-10.125-11.281-10.414-18.803c-0.867-13.306,9.546-11.281,9.546-11.281l7.231,2.893l3.761-5.785
	c1.735,0,3.471,0.289,5.207,0.579c-6.364-21.117-9.835-42.812-10.414-65.085H358.11c1.157,70.292,28.06,137.691,76.077,188.89
	l32.977-31.818C459.643,485.808,452.7,477.129,446.337,467.873z M480.76,480.89c-0.579-0.289-1.157-0.289-2.025-0.578
	c-2.604-0.579-4.917,1.735-8.389,2.893c1.157,1.446,2.314,2.604,3.472,4.05L480.76,480.89z M543.53,486.675l-0.29,0.289
	c-2.893,4.629-4.339,3.472-13.885,4.34c-9.545,0.867-11.859,5.785-18.513,6.652c-6.653,0.868-5.785,0-11.57-5.496
	c-2.893-2.604-6.075-5.206-9.257-7.231l-8.967,8.678c41.364,41.365,96.903,64.796,155.046,66.242v-45.415
	C603.119,513.866,571.3,504.031,543.53,486.675L543.53,486.675z M430.138,403.656c6.653-0.868,9.257,0.579,15.62-0.579
	c6.364-1.157,2.604-15.91,2.604-21.984c0-6.074,6.075-11.57,10.414-17.645c0.578-1.157,1.446-2.025,2.313-2.893
	c-1.156-7.81-2.024-15.91-2.024-24.009h-45.415c0.579,22.852,4.339,45.415,11.571,67.11
	C426.667,403.945,428.402,403.945,430.138,403.656L430.138,403.656z M734.156,248.031c2.024,3.471,10.124,15.91,15.909,20.538
	c6.942,5.207,15.909,9.256,20.827,12.438c4.918,3.182-6.363,3.76-2.024,7.231s13.306-6.364,15.62-6.364
	c4.05,0,7.231,2.893,7.521,6.942c0,0.289,0,0.579,0,0.868c0,6.653-3.761,11.86-0.578,12.438
	c3.182,0.579,12.728-12.728,13.596-23.141c-1.736-5.496-3.761-10.992-6.075-16.199c-6.363-6.942-15.62-8.389-15.909-12.438
	c-0.29-6.653,3.471-6.653,5.785-7.232c-6.075-10.124-13.017-19.67-20.827-28.348L734.156,248.031z M598.201,284.189
	c3.182,0,6.653,0,9.835-0.579c10.124-1.157,8.389-17.934,15.62-15.909c4.05,1.157,8.1,1.157,12.149,0v-44.258
	c-26.034,1.157-50.621,11.86-69.424,29.794L598.201,284.189z M548.736,275.511c3.761-1.157,7.811-2.025,11.86-2.314
	c15.909-1.446,15.909,11.86,15.909,11.86c2.604-0.578,4.918-1.157,7.521-1.446l-24.299-23.43
	C555.679,265.098,551.919,270.015,548.736,275.511L548.736,275.511z M500.719,327.29c2.024-3.76,2.893-7.81,3.182-12.149
	c0.579-9.257,2.604-22.852,17.646-24.009c13.596-0.868-1.157-6.075,5.785-8.099c2.024-0.579,4.918-1.736,7.811-2.893
	c4.628-9.545,10.702-18.513,17.645-26.612l-39.629-38.183c-28.059,30.662-43.969,70.581-44.836,112.235L500.719,327.29z
	 M492.619,353.324c0.578,2.893,6.074,4.049,3.182,12.728v0.289c0,0-5.785,3.182-5.785-0.579v-0.578
	c-0.289-3.471-2.024-8.1-1.446-14.463c0.868-5.207,3.183-10.125,6.364-14.174H468.61c0.289,6.942,0.867,13.885,1.735,20.827
	l1.157,0.29c4.628,0.868,10.413,8.678,14.463,8.678c1.446,0,2.893-0.289,4.05-1.157v0.868c0,3.471,5.785,0.579,5.785,0.579v-0.579
	c3.472,2.025,5.785,5.207,6.942,8.967c2.314,8.389,5.207,16.777,8.389,24.877c2.314,4.917,3.472,10.413,3.472,15.909
	c0,5.785,4.917,6.653,5.207,10.992c0.289,4.339,2.024,12.438,2.024,12.438l-4.339,4.918l35.001-34.134
	c-14.463-16.199-24.009-36.158-27.77-57.274c-1.446-0.579-2.893-0.579-4.339,0c-6.074,2.025,1.735,13.595-4.339,12.438
	c-4.339-0.868-7.521-2.893-6.364-6.075s4.629,0.579,4.629-7.81c0-4.05-6.942-7.811-0.579-7.811c1.446,0,4.918,3.472,7.521,3.472
	c0.867,0,1.446,0,2.313-0.29c-0.289-3.182-0.578-6.364-0.867-9.546l-0.868-0.579h-8.1c-0.289,1.446-1.446,2.604-4.628,2.604
	c-10.703,0.29-7.231,6.075-7.811,9.257C500.719,351.588,492.041,350.431,492.619,353.324L492.619,353.324z M524.149,319.19
	c-4.629-2.025-13.596-1.736-13.596,2.893c0,1.735,0.578,3.471,1.446,4.917h11.86C523.57,324.686,523.57,322.083,524.149,319.19
	L524.149,319.19z M580.267,384.275c-11.859,0,0-16.777-3.182-17.645c-7.811-2.025-3.761,8.967-6.942,8.967
	c-3.182-0.29-6.075-2.604-6.942-5.786c0-2.025,1.446-7.231-2.604-7.231s-9.257-2.314-13.017-3.471
	c-4.05-1.157-7.811-1.736-11.86-2.604c4.05,17.645,12.438,33.844,24.299,47.439L580.267,384.275z M597.044,364.315
	c-0.868-0.868-2.024-1.157-3.471-1.157c-4.339,0-7.811,13.595-10.992,18.802l15.909-15.621
	C597.912,365.762,597.333,364.894,597.044,364.315L597.044,364.315z M579.978,336.835c-0.579,2.025-1.446,3.76-2.893,5.207
	c-2.314,2.604,4.917,3.182,10.124,2.314h0.578c-0.578-2.314-0.867-4.917-1.156-7.232L579.978,336.835z M635.806,276.379
	c-2.604-1.157-5.207-0.868-4.339,2.025c1.446-0.29,2.893-0.29,4.339-0.579V276.379z M650.848,377.043
	c2.024-2.025,3.471-4.628,4.339-7.521c1.157-11.281,12.728-3.182,17.066-7.231c4.339-4.05,7.811-15.331,3.761-18.224
	c-4.05-2.893,10.124-0.579,8.967-5.207c-1.156-4.628-11.859,1.157-13.017-3.182c-1.157-4.339-8.389-4.628-3.761-26.612
	c1.157-4.917-9.546-1.157-11.281-14.463c-0.289-2.893-10.703-1.157-13.885-3.471c-1.735-1.446-3.471-3.182-4.339-5.207
	c-1.735,0-3.471,0.289-5.207,0.578c0.868,4.339,0.868,8.678-1.735,10.414c-4.339,2.603-8.1,2.314-11.281,4.339
	s1.157,4.628-2.604,7.231s-10.703,4.339-10.124,7.81c0.578,3.471,6.074,5.207,4.339,7.232s-6.074-3.182-7.521,0.578
	c-1.446,3.761,0,13.596-4.34,13.596c-4.339,0,0-6.653-5.495-8.678c0,1.157,0,2.314,0,3.471c0,2.893,0.289,6.075,0.867,8.968
	c0.578,0,1.446,0,2.025,0c4.628,0.578-1.157,2.893,4.628,2.893s4.05-10.414,8.1-9.835c4.05,0.578,2.024,16.199-2.604,19.67
	s-4.339-3.182-5.785,0.578c-0.29,0.579-0.579,1.157-0.579,1.736c1.446,2.604,3.183,4.917,5.207,6.942c5.496,0,4.628-8.389,8.1-9.256
	c3.471-0.868-0.578-11.571,8.389-12.438s13.885-3.471,16.488,2.893s-6.364,23.72-10.414,24.298
	c-9.546,1.157-15.042-1.157-15.042,1.157c0,0.289,0,0.289,0,0.578c10.703,7.521,23.72,10.125,36.448,7.232L650.848,377.043z
	 M645.641,404.234c2.893-2.025,5.207-4.628,6.942-7.811c5.207-11.57-7.521,0-6.364-9.256V386.3h-0.578V404.234z M635.806,436.632
	c-1.735,0.289-3.472,0.289-4.917-0.578c-3.472-2.604-4.34-15.042,4.917-16.488v-32.977c-11.281-1.157-22.273-5.785-30.662-13.306
	l-38.762,37.604c18.803,17.935,43.39,28.637,69.424,29.794V436.632z M645.641,435.765c2.604-1.447,5.785-2.314,8.967-2.314
	c11.571-0.868,10.125,2.314,13.596,3.761c12.728-3.472,24.877-9.257,35.869-17.067c-2.314-3.471-5.785,4.05-10.703,2.893
	c-4.917-1.156-5.785-6.942,0-11.57c5.785-4.628,10.703-6.942,7.811-9.835s-10.703,0.579-13.307,5.207
	c-2.604,4.628-1.446,19.67-5.785,20.248c-5.207,0.579-10.413-0.289-15.62-2.024c-17.066-5.207-15.909,5.496-19.092,7.231
	l-1.446,0.868L645.641,435.765z M635.806,497.089c-4.628,0.289-9.546-0.29-13.885-2.025c-10.703-3.182-21.405-19.959-21.405-23.431
	c0-3.471,4.339-5.206,5.206-7.81c0.868-2.604,1.446-6.364,2.604-9.257c1.735-2.893,3.761-5.496,6.364-7.521
	c-20.827-4.629-39.919-15.042-55.25-29.795l-35.29,34.134c6.074,2.604,1.735,5.206,6.363,10.702
	c4.629,5.496,10.125,5.496,13.885,8.968c1.446,1.735,2.314,3.761,2.025,6.074c26.612,17.356,57.274,27.191,89.094,28.059
	L635.806,497.089z M670.518,502.585c-0.868-2.604-2.025-5.207-3.472-7.521c-2.893-3.471-11.57-0.289-21.405,0.868v8.967
	C654.029,504.898,662.129,504.32,670.518,502.585L670.518,502.585z M724.61,560.438c-3.472-0.289-6.653-1.157-9.546-2.893
	c-3.471-2.024-7.231-4.339-10.124-6.364c-7.521-5.206-13.885-11.57-19.381-18.802c-4.918-6.653,4.917-14.174-7.811-21.695
	c-10.703,2.314-21.405,3.472-32.108,3.761v45.415c19.959-0.29,39.919-3.472,59.01-8.968c3.472,2.025,6.942,4.629,10.414,6.653
	c-22.563,7.521-45.993,11.57-69.713,11.86v45.993c73.184-1.157,143.187-30.952,194.965-83.02L807.34,500.56
	c-15.041,15.042-32.108,27.77-50.621,38.473C745.438,548.867,728.949,560.727,724.61,560.438L724.61,560.438z M742.256,437.211
	c-17.356,2.024-27.48-10.992-30.373-8.968c-2.893,2.025-3.183,3.472-3.183,5.207s27.191,8.1,34.134,8.678
	c1.157,0,2.604-0.289,3.471-0.867L742.256,437.211z M777.546,336.835c0.578,1.157,0.867,2.314,0.867,3.76
	c0.579,4.628,17.067,19.959,17.067,25.456s-9.257,4.917-15.621,5.785c-12.728,1.736-12.728,5.496-16.487,5.207
	c-3.761-0.29-1.736-5.207-2.604-4.339c-2.025,2.025-8.1,13.596-10.703,17.646s-9.835,8.389-14.753,11.57
	c-1.735,2.314-3.471,4.628-5.206,6.653c1.735,3.471,10.702-2.604,14.174-3.76c3.471-1.157,3.761-8.389,8.1-8.967
	s4.917,2.025,7.521,8.389s-2.604,2.604-4.339,19.092c0.289,3.76-1.157,7.231-3.472,10.124l0.868,0.868
	c2.024-2.604,4.917-4.34,8.1-5.207c8.389-1.157,4.628,4.05,6.074,10.413c0.579,2.314,1.735,4.629,3.761,6.075
	c26.323-30.373,41.365-68.846,42.232-109.053L777.546,336.835z M811.679,311.38c-1.446,1.157-3.182,1.446-4.917,0.579
	c-4.05-1.735,1.157-8.678,2.604-14.174c-0.579-2.604-1.157-5.496-1.736-8.1c-1.446,3.76-6.941,17.356-11.57,18.224
	c-4.628,0.868-5.207,0-10.124,4.628c-4.918,4.628-4.05,9.256-6.942,14.752h33.844C812.836,322.083,812.258,316.876,811.679,311.38
	L811.679,311.38z M713.907,252.081h-0.868c-4.339,0-6.363,4.339-9.256,0c-1.157-2.025,1.446-3.76,4.628-4.917
	c-17.935-14.463-39.629-22.852-62.771-24.009v41.654c2.314-0.289,4.918,0.29,6.942,1.446c13.885,9.835,13.017-11.86,19.381-7.231
	c8.967,6.364-13.885,13.595-9.257,18.224c4.629,4.628,5.207-4.05,10.125-3.182c4.917,1.157,3.182,6.074,10.702,6.074
	c7.521,0,4.339-15.042,18.803-17.066c0.868,0,1.735-0.29,2.893-0.579l4.05-4.05c-0.289-2.025-1.157-4.05,5.207-5.207l0.867-0.579
	L713.907,252.081z M848.994,241.088c-2.313,1.446-5.207,2.025-8.1,1.446c-7.521-1.157-8.678-16.488-17.066-19.67
	c-30.373-11.571-22.273-16.199-25.455-19.959c-2.604-3.182-9.546-1.735-12.728-5.207l-6.364,6.364
	c1.157,1.157,2.314,2.025,3.472,2.893c10.702,6.364,4.339,13.017,8.389,16.199c4.05,3.182,2.893-2.025,6.363,1.446
	c3.472,3.471-1.157,7.231,3.183,12.438c4.339,5.207,7.521,8.099,8.389,12.728c0.578,5.207,0.867,10.414,0.867,15.62
	c1.736,4.339,3.182,8.678,4.629,13.306c1.446-2.603,3.471-6.653,6.363-6.653s0,11.86-2.604,21.695
	c2.314,10.992,3.472,21.984,3.761,32.976h45.704C867.218,297.785,860.854,268.279,848.994,241.088z M818.621,166.169
	c3.472,3.76,8.968,7.81,10.703,9.835c4.629,6.074,8.678,12.438,12.149,19.381c3.761,7.231,22.563,32.397,15.331,39.629
	c13.017,29.216,19.959,60.746,20.538,92.565h45.704c-1.157-70.292-28.06-137.69-76.077-188.891L818.621,166.169z M744.569,118.729
	c3.472-1.446,10.124,1.447,13.596-4.917c2.893-4.917,15.042,3.761,17.066,1.157c2.025-2.604-8.967-14.174,8.1-6.653
	c11.57,5.207,0,8.1,0.578,12.438c0.579,4.339,3.761-2.025,15.91,13.017c6.074,7.521-2.893,4.628,3.761,11.86
	c6.652,7.231,7.81,3.761,12.438,5.207c1.447,0.578,2.314,1.446,2.314,2.314l22.273-21.695
	c-51.778-52.068-121.491-81.862-194.965-83.02v45.993C679.774,95.299,713.618,103.398,744.569,118.729L744.569,118.729z
	 M646.509,115.547c1.735-0.868,7.231,1.446,7.231,4.339s-4.339,4.05-7.231,3.182c-0.29,0-0.868-0.29-1.157-0.579v27.191
	c39.919,1.157,78.102,15.042,109.342,40.208c-2.603-3.471-5.785-6.653-9.256-9.546c-3.761-1.446-6.364-5.785-2.604-8.389
	c3.76-2.604-1.446-8.1,0.578-11.86c6.364,0,4.34,9.256,8.679,13.885s5.785-1.157,9.545,3.182c3.761,4.339,0.868,15.331,7.521,18.224
	c1.157,0.578,2.313,1.157,3.471,2.024l9.835-9.545c-1.735-6.653-4.049-14.463-8.678-17.067c-6.942-3.471-5.785,6.942-10.124,4.05
	c-7.811-5.207-6.364-21.695-6.364-21.695s-11.57-2.025-6.942-18.224c0.868-3.182-7.231-3.182-8.967-7.521
	c-29.795-14.753-62.481-22.852-95.747-23.431v12.438C645.641,116.126,646.219,115.836,646.509,115.547z M797.794,491.304
	c-3.471,1.445-7.231,0.867-8.099-2.604c-0.29-1.446-0.579-3.761-0.868-6.075l-20.538-19.959c-1.446,1.446-2.893,2.893-4.339,4.339
	c-0.289,0.868-0.289,1.735-0.289,2.604c1.157,6.363,13.885,13.017,14.463,17.066c0.579,4.05-6.942,14.174-6.942,18.224
	c0.289,4.918,0.289,9.546-0.289,14.464c10.703-7.521,20.538-15.91,29.795-24.877L797.794,491.304z M795.191,456.302
	c10.124-0.867,10.991,22.563,10.124,28.349c0,0.289,0,0.289,0,0.578l2.313,2.025c37.895-41.076,59.589-94.59,60.457-150.418h-45.415
	c-1.157,43.968-17.935,86.201-47.729,118.888l13.306,13.017C788.538,462.087,790.563,456.591,795.191,456.302L795.191,456.302z
	 M385.88,425.062c3.761-0.868,2.893,7.231,6.653,11.859c3.761,4.629,4.629,12.149,3.472,13.596
	c-2.314,2.604-3.183-4.917-6.364-12.438C386.459,430.558,385.88,426.797,385.88,425.062z M798.373,353.613
	c8.967-1.157,7.521,5.207,1.446,5.207C793.744,358.819,789.405,354.48,798.373,353.613z M766.843,416.383
	c3.761-2.603,6.942,0.579,3.183,2.604C766.265,421.012,763.082,418.987,766.843,416.383z M513.446,370.68
	c3.761-2.604,10.414,6.364,5.207,8.967C513.446,382.25,509.686,373.283,513.446,370.68z M627.995,373.572
	c0-1.446,1.446-2.314,3.472-2.314c2.024,0,2.893,0.29,2.893,1.736c0,1.735-1.157,2.893-2.893,3.182
	C629.441,375.886,627.995,375.019,627.995,373.572L627.995,373.572z M647.666,351.588c0-1.157,2.024-1.446,3.182-1.446
	s2.024,0.868,2.024,2.025s-0.867,2.025-2.024,2.025S647.666,352.745,647.666,351.588z M627.417,331.339
	c5.207,4.628,3.761,7.81-2.893,6.653C617.871,336.835,624.813,329.025,627.417,331.339L627.417,331.339z M669.649,347.249
	c1.157,0,0.868,4.339-0.289,4.339S668.492,347.249,669.649,347.249z M700.602,252.37c3.76,1.446,2.024,9.256-3.183,8.389
	C692.213,259.891,696.841,250.923,700.602,252.37L700.602,252.37z M691.923,262.205c2.604,2.024-2.313,10.992-5.496,9.256
	C683.245,269.726,689.319,260.18,691.923,262.205L691.923,262.205z M814.572,249.188c3.76-1.157,8.389,17.645,4.628,19.381
	C814.282,270.594,810.812,250.345,814.572,249.188L814.572,249.188z M799.24,214.476c1.157,0,4.34,5.496,3.183,5.496
	C797.505,219.972,796.059,214.476,799.24,214.476L799.24,214.476z M716.222,161.83c0,0,9.546,3.761,15.042,2.025
	c2.604-0.578,4.917-1.735,6.942-3.471c0,0,1.446,7.232-3.761,8.389C729.238,169.929,716.222,161.83,716.222,161.83L716.222,161.83z
	 M697.419,115.836c3.183,0,5.496,5.786,0.579,5.786c-1.736,0-2.893-1.157-3.183-2.604
	C694.526,117.572,695.684,116.126,697.419,115.836L697.419,115.836z M720.561,154.887c1.157,0,4.339,5.496,3.471,5.496
	C718.825,160.383,717.379,154.887,720.561,154.887L720.561,154.887z M695.395,67.818c1.446,1.736-0.868,4.628-7.811,5.207
	c-6.942,0.578-10.992,4.917-14.463,1.446c-3.472-3.471,8.1-3.471,11.281-6.653C687.584,64.637,690.477,63.19,695.395,67.818
	L695.395,67.818z M665.6,70.711c2.893,0,6.075,13.596,4.629,15.621s-4.629,0.289-10.125-0.579c-5.495-0.868-2.893-5.207-7.521-5.207
	s-7.521,3.182-6.942-0.578C646.22,76.207,662.996,70.422,665.6,70.711L665.6,70.711z"/>
<path fill="#FFFFFF" d="M418.567,65.793c-2.893,0.29-72.316,13.306-84.755,96.615C369.971,138.399,399.187,104.845,418.567,65.793z"
	/>
<path fill="#FFFFFF" d="M343.937,90.381c-16.777,40.787-18.224,80.416-26.323,113.971c10.992-16.777,19.381-34.712,33.555-43.679
	c17.067-10.992,32.398-24.877,45.126-40.787c2.313,3.76,0.868,43.679-43.101,73.763c-31.241,21.116-51.489,53.803-51.489,53.803
	c0-56.407-8.678-44.547-5.786-76.077C301.704,109.184,343.937,90.381,343.937,90.381z"/>
<path fill="#FFFFFF" d="M289.266,147.945c0,0-4.628,49.754-2.893,67.11c2.603,27.191,3.471,54.382,2.314,81.862
	c0,0,14.463-39.34,26.323-54.671c11.86-15.331,43.101-40.787,43.101-40.787c-5.496,26.902-16.777,52.068-33.555,73.763
	c-35.869,44.547-39.629,82.441-39.629,82.441s-24.009-53.225-26.323-113.103C256.289,179.475,289.266,147.945,289.266,147.945z"/>
<path fill="#FFFFFF" d="M238.065,251.792c-2.893,14.463-10.992,53.514,1.446,93.433s31.53,46.861,60.746,101.532
	c-1.446-20.537-2.025-29.215,7.231-49.753c27.77-61.324,21.984-113.392,21.984-113.392s-26.902,41.944-31.53,56.985
	c-10.992,36.448-8.099,64.217-8.099,64.217s-16.199-56.406-21.984-76.077C262.075,309.066,247.033,288.239,238.065,251.792z"/>
<path fill="#FFFFFF" d="M239.512,378.779c0,0,7.232,66.821,35.001,102.4c24.876,31.53,45.993,37.315,70.002,65.085
	c0.578,0-4.34-26.901-3.472-43.679s5.207-47.439,2.893-70.87c-4.339-44.547-15.909-71.738-15.909-71.738
	s-10.125,55.539-10.125,78.97s8.1,65.085,8.1,65.085s-25.744-45.993-39.34-60.746C273.067,428.532,239.512,378.779,239.512,378.779z
	"/>
<path fill="#FFFFFF" d="M265.835,488.41c0,0,17.067,76.945,52.646,102.4c43.101,30.662,96.614,42.232,96.614,42.232
	c-10.992-35.868-13.017-74.63-19.67-89.961c-12.728-29.505-40.208-78.102-40.208-78.102s-7.231,52.067,6.364,87.068
	c9.546,24.009,21.984,47.439,21.984,47.439s-46.861-38.762-60.746-49.753C301.125,532.379,281.745,511.552,265.835,488.41z"/>
<path fill="#FFFFFF" d="M405.261,545.396c0,0,8.1,50.332,16.777,66.531c21.117,40.208,45.993,52.646,45.993,52.646
	s-45.703-19.381-65.084-24.009c-56.985-13.885-88.516-34.423-88.516-34.423c4.339,10.992,37.894,53.514,84.755,76.077
	c35.001,16.777,80.416-8.1,108.764-8.1c-8.678-8.1-15.331-7.231-42.521-55.539C437.948,568.537,405.261,545.396,405.261,545.396z"/>
<path fill="#FFFFFF" d="M862.879,65.793c2.893,0.29,72.316,13.306,84.755,96.615C911.476,138.399,882.26,104.845,862.879,65.793z"/>
<path fill="#FFFFFF" d="M937.51,90.381c16.777,40.787,18.224,80.416,26.323,113.971c-10.992-16.777-19.381-34.712-33.555-43.679
	c-17.356-10.992-32.398-24.877-45.415-40.787c-2.314,3.76-0.868,43.679,43.101,73.763c31.53,21.695,51.778,54.093,51.778,54.093
	c0-56.407,8.678-44.547,5.785-76.077C979.742,109.184,937.51,90.381,937.51,90.381z"/>
<path fill="#FFFFFF" d="M992.181,147.945c0,0,4.918,49.754,2.893,67.11c-2.604,27.191-3.471,54.382-2.313,81.862
	c0,0-14.464-39.34-26.323-54.671c-11.86-15.331-43.101-40.787-43.101-40.787c5.496,26.902,16.777,52.068,33.555,73.763
	c35.869,44.547,39.629,82.441,39.629,82.441s24.01-53.225,26.323-113.103C1025.157,179.475,992.181,147.945,992.181,147.945z"/>
<path fill="#FFFFFF" d="M1043.381,251.792c2.893,14.463,10.992,53.514-1.446,93.433s-31.53,46.861-60.746,101.822
	c1.446-20.538,2.025-29.216-7.231-49.754c-27.77-61.324-21.984-113.392-21.984-113.392s26.902,41.943,31.53,56.985
	c10.992,36.447,8.1,64.217,8.1,64.217s16.198-56.407,21.983-76.077C1019.372,309.355,1034.703,288.239,1043.381,251.792z"/>
<path fill="#FFFFFF" d="M1041.935,378.779c0,0-7.231,66.821-35.001,102.4c-24.877,31.53-45.993,37.315-70.003,65.085
	c-0.867,0,4.339-26.901,3.472-43.679c-0.868-16.777-5.207-47.439-2.893-70.87c4.339-44.547,16.199-71.738,16.199-71.738
	s10.124,55.539,10.124,78.97s-8.1,65.085-8.1,65.085s25.745-45.993,39.63-60.746S1041.935,378.779,1041.935,378.779z"/>
<path fill="#FFFFFF" d="M1015.611,488.41c0,0-17.066,76.945-52.646,102.4c-43.101,30.662-96.325,42.232-96.325,42.232
	c10.992-35.868,13.017-74.63,19.67-89.961c12.728-29.505,40.208-78.102,40.208-78.102s7.231,52.067-6.653,87.068
	c-9.546,24.009-21.984,47.439-21.984,47.439s46.861-38.762,60.746-49.753C980.321,532.379,999.701,511.552,1015.611,488.41z"/>
<path fill="#FFFFFF" d="M875.896,545.396c0,0-8.1,50.332-16.777,66.531c-21.117,40.208-45.994,52.646-45.994,52.646
	s45.704-19.381,65.085-24.009c56.985-13.885,88.516-34.423,88.516-34.423c-4.339,10.992-37.894,53.514-84.755,76.077
	c-35.001,16.777-80.416-8.1-108.764-8.1c8.678-8.1,15.331-7.231,42.521-55.539C843.498,568.537,875.896,545.396,875.896,545.396z"/>
<path fill="#FFFFFF" d="M639.855,693.789c0,0-37.894-13.885-75.209-14.753c-37.315-0.867-99.219,18.803-120.624,21.984
	c-25.455,3.761-65.663-5.207-65.663-5.207s21.984,33.556,99.508,34.423c61.324,0.579,106.738-33.555,146.078-32.976
	c-65.084,25.455-87.646,64.217-87.646,64.217l18.224,4.339c0,0,51.199-59.878,86.201-62.771c35.001,2.893,86.2,62.771,86.2,62.771
	l18.225-4.339c0,0-22.563-38.762-87.647-64.217c39.34-0.579,84.755,33.555,146.079,32.976c77.522-0.867,99.507-34.423,99.507-34.423
	s-40.208,8.679-65.663,5.207c-21.116-3.182-83.309-22.852-120.624-21.984C679.484,679.904,639.855,693.789,639.855,693.789z"/>
<path fill="#FFFFFF" d="M190.626,903.507h-22.852v-1.446c1.736,0,2.893-0.579,2.893-1.446c-1.157-2.025-2.603-3.761-4.339-5.207
	c-4.628-4.628-14.752-15.62-31.241-33.266l0,0v37.026c0,1.735,1.157,2.603,3.471,2.893v1.446h-23.141v-1.446
	c2.314-0.29,3.471-1.157,3.471-2.893v-55.25c0-1.735-1.157-2.604-3.471-2.893v-1.446h29.216v1.446c-2.314,0-3.471,0.578-3.471,1.735
	c1.157,2.314,2.893,4.339,4.628,6.074l25.166,26.902l0,0v-31.53c0.289-1.446-0.868-2.604-2.314-2.893h-0.289v-1.446h22.273v1.446
	c-2.314,0.289-3.471,1.157-3.471,2.893v55.25c0,0.867,0,1.446,0.579,2.313c0.868,0.579,2.025,0.868,2.893,0.579V903.507z"/>
<path fill="#FFFFFF" d="M275.67,903.507h-20.249v-1.446c1.157,0,1.736-0.29,1.736-0.868c-0.29-1.157-0.868-2.604-1.446-3.761
	l-2.314-4.628h-28.348l-2.893,6.074c-0.289,0.579-0.579,1.447-0.579,2.314c0,0.579,0.579,0.868,1.736,0.868v1.446H204.8v-1.446
	c1.446,0,2.604-0.868,2.893-2.314l2.893-6.364l15.91-35.579c0.868-1.446,1.446-3.182,2.024-4.918c0-0.867-0.578-1.157-1.446-1.157
	v-1.446h25.456v1.446c-1.157,0-1.446,0.29-1.446,1.157c0.289,1.446,0.868,2.893,1.735,4.05l15.91,33.266
	c1.157,2.314,2.314,4.628,3.471,7.521c1.157,2.893,2.604,4.339,3.761,4.339v1.446H275.67z M249.636,883.837L249.636,883.837
	l-10.125-20.827l0,0l-10.414,20.827H249.636L249.636,883.837z"/>
<path fill="#FFFFFF" d="M355.218,897.432l-1.446,0.868c-0.867-0.868-1.446-1.446-1.735-1.446s-1.735,0.578-4.339,2.024
	c-3.472,1.447-6.942,2.894-10.703,3.761c-4.05,1.157-8.1,1.446-12.148,1.446c-10.992,0-19.67-2.313-26.034-7.231
	c-6.075-4.628-9.546-12.149-9.257-19.959c-0.578-8.1,3.182-15.91,10.125-20.538c7.521-4.918,16.199-7.521,25.167-7.231
	c4.917,0,10.124,0.867,15.041,2.024c5.496,1.446,8.389,2.025,8.968,2.025c0.578,0,1.446-0.29,1.735-0.868l1.446,0.579l-8.678,17.645
	l-1.735-0.867c0.289-0.579,0.578-1.157,0.578-1.736c0-1.156-2.025-2.604-5.785-3.76c-3.472-1.157-7.231-2.025-10.992-2.025
	c-4.918-0.289-9.835,1.157-14.174,4.05c-6.075,4.05-7.521,12.438-3.183,18.224c0.868,1.157,2.025,2.314,3.183,3.182
	c4.339,2.604,9.256,4.05,14.463,3.761c4.05,0,8.1-1.157,11.57-2.893c3.761-2.024,5.786-3.472,5.786-5.207v-1.735l1.156-0.868
	L355.218,897.432z"/>
<path fill="#FFFFFF" d="M390.798,903.507h-22.853v-1.446c2.314,0,3.183-0.868,3.183-2.893V854.91c0-1.735-1.157-2.893-3.183-2.893
	v-1.446h22.853v1.446c-2.314,0-3.182,1.157-3.182,2.893v44.258c0,2.024,1.156,2.893,3.182,2.893V903.507z"/>
<path fill="#FFFFFF" d="M407.286,876.895c-0.29-7.811,3.182-15.621,9.256-20.538c6.653-4.918,14.753-7.521,23.142-7.231
	c8.389-0.29,16.488,2.313,23.142,7.521c6.074,4.628,9.835,12.149,9.546,19.959c0.289,7.811-3.183,15.331-9.257,20.249
	c-6.653,5.207-14.753,7.811-23.142,7.231c-8.678,0.289-17.066-2.313-23.72-7.811C410.179,891.646,406.996,884.415,407.286,876.895z
	 M422.906,876.604c-0.289,4.05,1.735,8.1,4.918,10.992c3.471,2.604,7.81,4.05,12.148,3.761c4.339,0.289,8.389-1.157,11.86-3.761
	c3.182-2.604,5.206-6.942,4.917-10.992c0-4.049-1.735-8.099-4.917-10.702c-3.183-2.604-7.231-4.05-11.571-4.05
	c-4.339,0-8.678,1.157-12.148,4.05C424.642,868.506,422.906,872.556,422.906,876.604L422.906,876.604z"/>
<path fill="#FFFFFF" d="M550.183,903.507h-22.273v-1.446c2.314,0,3.472-0.579,3.472-1.446c0-0.868-1.446-3.183-4.628-6.364
	l-24.299-26.034v31.241c0,1.735,1.157,2.604,2.893,2.893v1.446H484.52v-1.446c2.314-0.289,3.183-1.157,3.183-2.893V854.91
	c0-2.025-1.157-2.893-3.183-2.893v-1.446h28.927v1.446c-1.735,0.289-2.604,0.867-2.604,2.024c0,0.579,2.314,3.472,7.231,8.678
	l14.464,15.331l0,0V854.91c0-2.025-1.157-2.893-3.183-2.893v-1.446h21.117v1.446c-2.314,0-3.183,0.867-3.183,2.893v44.257
	c0,2.025,1.157,2.894,3.183,2.894L550.183,903.507z"/>
<path fill="#FFFFFF" d="M624.524,906.399h-1.446c-0.289-0.868-0.579-1.736-1.157-2.314c-0.868-0.578-2.024-0.578-2.893-0.578
	h-52.646v-1.446c2.314,0,3.182-0.868,3.182-2.893V854.91c0-2.025-1.156-2.893-3.182-2.893v-1.446h53.515
	c2.313,0,3.182-0.868,3.182-2.893h1.446v16.777h-1.446c0-2.025-1.157-2.893-3.472-2.893h-33.844v8.967h21.405
	c0.868,0,1.736,0,2.604-0.578c0.579-0.29,0.579-1.157,0.579-2.604h1.446v16.488h-1.446c0-0.868-0.29-1.736-0.868-2.314
	c-0.868-0.289-1.735-0.578-2.604-0.578h-21.405v11.859h33.555c2.024,0.289,3.761-1.157,4.05-2.893h1.446V906.399z"/>
<path fill="#FFFFFF" d="M697.709,886.729c0,5.206-2.604,10.413-7.232,13.017c-5.496,3.472-12.148,4.918-18.802,4.628
	c-6.075,0-11.86-0.867-17.646-2.313c-6.074-1.446-9.257-2.314-9.546-2.314c-1.157,0.289-2.024,0.868-2.893,1.735l-1.157-0.289
	l5.207-16.488l1.446,0.579v1.446c0,1.446,2.604,2.893,8.1,4.339c5.207,1.446,10.992,2.024,16.488,2.024
	c6.942,0,10.413-1.735,10.413-5.206c0-1.446-0.867-2.314-2.024-2.893c-2.604-1.157-5.496-1.736-8.389-2.025l-8.389-1.157
	c-5.785-0.289-11.281-2.024-16.199-4.917c-3.182-2.025-4.917-5.496-4.917-9.257c0-5.496,2.893-10.413,7.521-13.017
	c5.785-3.761,12.728-5.786,19.67-5.207c4.918,0,10.124,0.578,15.042,1.446c5.785,1.157,8.967,1.446,9.257,1.446
	c0.867-0.289,1.735-0.868,2.313-1.446l1.446,0.578l-7.231,15.331l-1.735-0.867c0-0.289,0.289-0.579,0.289-0.868
	c0-0.867-2.024-2.024-6.074-3.182c-3.761-1.157-7.521-1.735-11.281-1.735c-9.257,0-13.885,1.735-13.885,5.206
	c0,1.157,0.867,2.025,2.313,2.893c2.604,0.868,5.496,1.447,8.1,1.736l7.231,0.867c8.1,0.868,13.885,2.604,17.067,5.207
	C695.973,878.63,697.998,882.391,697.709,886.729z"/>
<path fill="#FFFFFF" d="M754.115,839.868h25.166v1.446c-2.314,0.289-3.471,1.157-3.471,2.893v31.53
	c-0.29,3.76,1.156,7.231,3.76,9.835c3.183,2.313,7.232,3.471,11.281,3.182c4.05,0.289,8.1-0.868,11.281-3.182
	c2.604-2.604,4.05-6.364,3.761-10.124v-31.241c0-1.735-1.157-2.604-3.471-2.893v-1.446h25.166v1.446
	c-2.314,0.289-3.472,1.157-3.472,2.893v31.819c0,18.802-10.992,28.348-32.687,28.348c-22.563,0-33.845-9.546-33.845-28.348v-31.819
	c0-1.735-1.156-2.604-3.471-2.893V839.868L754.115,839.868z"/>
<path fill="#FFFFFF" d="M912.055,903.507h-22.563v-1.446c2.314,0,3.472-0.579,3.472-1.446c0-0.868-1.446-3.183-4.629-6.364
	l-24.298-26.034v31.241c0,1.735,0.868,2.604,2.893,2.893v1.446h-20.827v-1.446c2.314-0.289,3.182-1.157,3.182-2.893V854.91
	c0-2.025-1.156-2.893-3.182-2.893v-1.446h28.927v1.446c-1.735,0.289-2.604,0.867-2.604,2.024c0,0.579,2.314,3.472,7.231,8.678
	l14.464,15.331l0,0V854.91c0-2.025-1.157-2.893-3.183-2.893v-1.446h21.117v1.446c-2.314,0-3.183,0.867-3.183,2.893v44.257
	c0,2.025,1.157,2.894,3.183,2.894V903.507z"/>
<path fill="#FFFFFF" d="M951.973,903.507h-22.852v-1.446c2.314,0,3.182-0.868,3.182-2.893V854.91c0-1.735-1.157-2.893-3.182-2.893
	v-1.446h22.852v1.446c-2.313,0-3.182,1.157-3.182,2.893v44.258c0,2.024,1.157,2.893,3.182,2.893V903.507z"/>
<path fill="#FFFFFF" d="M1033.546,876.895c0.289,6.942-2.025,13.885-6.364,19.381c-4.339,4.628-10.703,6.942-19.092,6.942h-36.736
	v-1.446c0.868,0,1.735-0.29,2.604-0.868c0.578-0.868,0.867-2.025,0.578-2.893v-42.522c0-0.867,0-2.024-0.578-2.893
	c-0.579-0.578-1.735-1.157-2.604-1.157v-1.446h37.026c6.942-0.289,13.884,2.314,18.802,7.232
	C1031.811,862.72,1034.124,869.662,1033.546,876.895z M1017.926,876.895c0.289-4.339-1.157-8.968-4.05-12.149
	c-2.604-2.604-7.231-3.761-13.596-3.761h-9.546v31.53h8.967c6.943,0,11.571-1.157,14.175-3.761
	C1016.769,885.283,1018.215,881.233,1017.926,876.895L1017.926,876.895z"/>
<path fill="#FFFFFF" d="M1113.962,903.507h-20.249v-1.446c1.157,0,1.735-0.29,1.735-0.868c-0.289-1.157-0.867-2.604-1.446-3.761
	l-2.313-4.628h-28.349l-2.893,6.074c-0.289,0.579-0.578,1.447-0.578,2.314c0,0.579,0.578,0.868,1.735,0.868v1.446h-18.224v-1.446
	c1.446,0,2.604-0.868,2.893-2.314c0.579-1.446,1.735-3.472,2.893-6.364l15.91-35.579c0.867-1.446,1.446-3.182,2.024-4.918
	c0-0.867-0.578-1.157-1.446-1.157v-1.446h25.455v1.446c-1.156,0-1.446,0.29-1.446,1.157c0.29,1.446,0.868,2.893,1.736,4.05
	l15.909,33.266c1.157,2.314,2.314,4.628,3.471,7.521c1.158,2.893,2.604,4.339,3.761,4.339L1113.962,903.507z M1087.928,883.837
	L1087.928,883.837l-10.124-20.827l0,0l-10.414,20.827H1087.928L1087.928,883.837z"/>
<path fill="#FFFFFF" d="M1184.253,886.729c0,5.206-2.604,10.413-7.231,13.017c-5.496,3.472-12.149,4.918-18.803,4.628
	c-6.074,0-11.859-0.867-17.934-2.313c-6.075-1.446-9.257-2.314-9.546-2.314c-1.157,0.289-2.025,0.868-2.893,1.735l-1.157-0.289
	l5.207-16.488l1.445,0.579v1.446c0,1.446,2.604,2.893,8.1,4.339c5.207,1.446,10.992,2.024,16.488,2.024
	c6.942,0,10.414-1.735,10.414-5.206c0-1.446-0.868-2.314-2.025-2.893c-2.604-1.157-5.496-1.736-8.389-2.025l-8.389-1.157
	c-5.785-0.289-11.281-2.024-16.199-4.917c-3.182-2.025-4.917-5.496-4.917-9.257c0-5.496,2.893-10.413,7.521-13.017
	c5.786-3.761,12.729-5.496,19.67-5.207c4.918,0,10.125,0.578,15.042,1.446c5.786,1.157,8.968,1.446,9.257,1.446
	s1.446-0.578,2.314-1.446l1.446,0.578l-7.231,15.331l-1.736-0.867c0-0.289,0.289-0.579,0.289-0.868c0-0.867-2.024-2.024-6.074-3.182
	c-3.761-1.157-7.521-1.735-11.281-1.735c-9.257,0-13.885,1.735-13.885,5.206c0,1.157,0.868,2.025,2.314,2.893
	c2.604,0.868,5.206,1.447,8.1,1.736l7.231,0.867c8.099,0.868,13.595,2.604,17.066,5.207
	C1182.518,878.63,1184.542,882.391,1184.253,886.729z"/>
<g>
	<rect x="633.202" y="1256.353" fill="#FFFFFF" width="27.191" height="86.491"/>
	<rect x="875.028" y="1257.221" fill="#FFFFFF" width="27.19" height="86.49"/>
	<path fill="#FFFFFF" d="M0,1109.695V1600h1280v-490.305H0z M203.643,1295.982h-27.191v-39.63h-27.191v199.015h27.191v-39.34h27.191
		v28.348c0.289,10.414-4.339,20.538-11.86,27.48c-7.521,7.521-17.935,11.571-28.637,11.281c-6.942,0-14.174-1.735-20.249-5.206
		c-6.074-3.472-11.281-8.389-14.752-14.175c-4.05-5.785-6.074-12.438-6.074-19.38v-177.031c0-6.942,1.735-13.885,5.496-19.67
		c12.149-19.381,37.604-25.455,57.275-13.306c5.496,3.471,9.835,7.81,13.306,13.306c3.76,5.785,5.496,12.728,5.496,19.67V1295.982z
		 M441.998,1256.063h-54.382v86.49h40.786v26.034h-40.786v86.779h54.093v26.034h-54.093c-9.546,0-18.514-4.917-23.72-13.017
		c-2.314-4.05-3.472-8.389-3.472-13.018v-199.015c0-4.628,1.157-9.256,3.472-13.306c2.313-4.05,5.785-7.231,9.835-9.257
		c4.339-2.313,8.967-3.471,13.885-3.471h54.382V1256.063z M687.295,1256.354v86.2c0,4.629-1.157,8.968-3.471,13.018
		c-2.314,4.05-5.786,7.231-9.836,9.256c-4.339,2.314-8.967,3.761-13.885,3.472h-27.19v113.103h-26.901v-251.082h54.092
		c4.918,0,9.546,1.157,13.885,3.471c4.05,2.314,7.521,5.496,9.836,9.257C686.138,1247.097,687.584,1251.725,687.295,1256.354z
		 M929.41,1482.27h-27.191v-112.524h-27.19v112.524h-26.901v-214.057c0-6.942,1.735-13.885,5.496-19.67
		c12.148-19.381,37.894-25.455,57.274-13.018c5.206,3.472,9.835,7.811,13.017,13.018c3.761,5.785,5.496,12.728,5.496,19.67V1482.27z
		 M1179.625,1481.112h-81.283v-251.083h27.19v225.049h26.901v-52.067h27.191V1481.112z"/>
</g>
</svg>
